<svg id="JUnit" xmlns="http://www.w3.org/2000/svg" viewBox="0 0 70 25.52"><defs><style>.cls-1{fill:#d0d4d9;}</style></defs><title>JUnit</title><path class="cls-1" d="M40,8.5V7.24H52.19V8.41c-.37,0-.78.07-1.19.09-1.44.06-1.84.45-1.84,1.89,0,4.83,0,9.67,0,14.5,0,2.77-.86,5.1-3.34,6.53a9.48,9.48,0,0,1-3.29,1.15,10.09,10.09,0,0,1-6.15-.67c-2.89-1.46-4.63-4.17-3.57-7.54a4,4,0,0,1,4.12-2.5,3.41,3.41,0,0,1,2.74,3.39,2.41,2.41,0,0,1-3,2.52c-.54-.09-1.25-.32-1.43.31a2.24,2.24,0,0,0,.34,1.65C36.41,31,39,31.6,40.75,31.09a4.16,4.16,0,0,0,3-3.72q.13-8.52.12-17c0-1.49-.4-1.8-1.88-1.82C41.35,8.49,40.72,8.5,40,8.5Z" transform="translate(-32.5 -7.24)"/><path class="cls-1" d="M53.77,11.48l-3-.32V10H61.89v1.22l-3,.17a8.71,8.71,0,0,0-.26,1.45q0,6.11,0,12.22A5.2,5.2,0,0,0,60,29c1.82,1.73,4,1.74,6.2,1.07s3.32-2.6,3.4-4.85c.13-3.61.09-7.23,0-10.85,0-2-.67-2.6-3.26-3.28V10h8.47V11a7.94,7.94,0,0,0-2.14.79A3.73,3.73,0,0,0,71.5,15c0,3.31,0,6.63,0,9.94a6.63,6.63,0,0,1-2.37,5.72,8.5,8.5,0,0,1-3.43,1.75c-3.08.56-6.16.52-9-1.21A5.26,5.26,0,0,1,54,26.73c-.1-4.41-.05-8.81-.07-13.22C53.89,12.91,53.82,12.31,53.77,11.48Z" transform="translate(-32.5 -7.24)"/><path class="cls-1" d="M78.7,31.51v.78H73.2v-.7l1.87-.39c0-.72,0-1.35,0-2q0-2.32,0-4.65c0-1.88-.12-2-2.07-2.47.21-.15.41-.31.63-.44s.18,0,.27,0h2.65L77,23.7a4.55,4.55,0,0,1,3.29-2.15c2.26-.2,3.54.65,3.79,2.9a48.93,48.93,0,0,1,.13,5c0,1.85,0,1.85,1.8,2.11v.72H80.49v-.7l1.73-.38c0-2.33.08-4.54,0-6.74A2.19,2.19,0,0,0,80,22.68a2.93,2.93,0,0,0-2.75,2,9.1,9.1,0,0,0-.29,2c0,1,0,2.07,0,3.1C76.92,31.35,77,31.4,78.7,31.51Z" transform="translate(-32.5 -7.24)"/><path class="cls-1" d="M101.8,28.39h.7c-.27,1.46-.35,2.88-1.83,3.69a2.8,2.8,0,0,1-4.36-2.54c0-2.19,0-4.38,0-6.57a1.53,1.53,0,0,0-.07-.27H94.61l0-.79c2.46-.51,2.6-2.55,3-4.46l.66-.1v4.32h3.39l.06,1H98.29c0,1.51,0,2.93,0,4.35,0,.91,0,1.82,0,2.74,0,1.07.38,1.51,1.23,1.6a1.63,1.63,0,0,0,1.86-1.25C101.55,29.53,101.66,29,101.8,28.39Z" transform="translate(-32.5 -7.24)"/><path class="cls-1" d="M88.72,22.51l-1.49-.1,0-.72H91.3v9.5l2,.39v.71H87.47v-.74c2.07-.26,2.07-.26,2.07-2.39,0-1.64,0-3.28,0-4.92A7.51,7.51,0,0,0,89,22.46Z" transform="translate(-32.5 -7.24)"/><path class="cls-1" d="M91.32,16.54a1.23,1.23,0,1,1-2.46.06,1.23,1.23,0,1,1,2.46-.06Z" transform="translate(-32.5 -7.24)"/></svg>