<?xml version="1.0" encoding="utf-8"?>
<!-- Generator: Adobe Illustrator 18.1.1, SVG Export Plug-In . SVG Version: 6.00 Build 0)  -->
<svg version="1.1" id="Layer_1" xmlns="http://www.w3.org/2000/svg" xmlns:xlink="http://www.w3.org/1999/xlink" x="0px" y="0px"
	 viewBox="0 0 800 800" enable-background="new 0 0 800 800" xml:space="preserve">
<g>
	<path fill="#999999" d="M721.1,558.3c0,13.7-8,26.9-20.6,33.1l-130.3,65.7c-5.1,2.9-10.9,4-16.6,4s-11.4-1.1-16.6-4L406.9,592
		c-1.1-0.6-1.7-0.6-2.3-1.1c-0.6,0.6-1.1,1.1-2.3,1.1L272,657.1c-5.1,2.9-10.9,4-16.6,4c-5.7,0-11.4-1.1-16.6-4l-130.3-65.7
		C96,585.1,88,572,88,558.3V437.1c0-14.9,9.1-28,22.9-34.3l125.7-54.3V232c0-14.9,9.1-28,22.9-34.3l130.3-56
		c4.6-2.3,9.7-2.9,14.3-2.9s9.7,1.1,14.3,2.9l130.3,56c13.7,6.3,22.9,19.4,22.9,34.3v116.6l126.3,54.3c13.7,6.3,22.9,19.4,22.9,34.3
		v121.1H721.1z M373.1,432l-117.7-50.3L137.7,432l117.7,50.3L373.1,432z M385.7,558.3v-91.4l-111.4,48v99.4L385.7,558.3z
		 M533.1,231.4l-128.6-54.9L276,231.4l128.6,54.9L533.1,231.4z M534.9,348.6v-77.1l-112,47.4v77.7L534.9,348.6z M671.4,432
		l-117.7-50.3L436,432l117.7,50.3L671.4,432z M684,558.3v-91.4l-112,48v99.4L684,558.3z"/>
</g>
</svg>
