<?xml version="1.0"?><svg width="640" height="480" xmlns="http://www.w3.org/2000/svg">
 <title>Key</title>
 <defs>
  <g id="anchor">
   <path id="path3661" fill="#ffffff" stroke="#000000" d="m10,-206.100006l12,456.100006c11,102 65,52 121,4l-8,-11l44,-28l-14,52l-12,-6c-55,121 -117,65 -153,125c-36,-60 -98,-4 -153,-125l-12,6l-14,-52l44,28l-8,11c56,48 110,98 121,-4l12,-456.100006c-22.333099,-5.089996 -37.278999,-26.143997 -34.7178,-48.905991c2.5611,-22.763016 21.812,-39.969009 44.7178,-39.969009c22.9058,0 42.1567,17.205994 44.7178,39.969009c2.561199,22.761993 -12.384701,43.815994 -34.71782,48.905991l0.00002,0z"/>
   <circle id="circle3663" fill="#0080ff" stroke="#000000" cx="0" cy="-250" r="25"/>
   <path id="path3665" fill="#ffffff" stroke="#ffffff" d="m0,-240c38.646599,-0.018997 69.965797,-31.352997 69.965797,-70c0,-38.647003 -31.319199,-69.980988 -69.965797,-70l0,20c27.614201,0 50,22.385986 50,50c0,27.614014 -22.385799,50 -50,50l0,20z"/>
   <path id="path3667" fill="#ffffff" stroke="#ffffff" d="m0,-240c-38.646599,-0.018997 -69.965797,-31.352997 -69.965797,-70c0,-38.647003 31.319199,-69.980988 69.965797,-70l0,20c-27.614201,0 -50,22.385986 -50,50c0,27.614014 22.385799,50 50,50l0,20z"/>
   <circle id="circle3669" fill="none" stroke="#000000" cx="0" cy="-310" r="50"/>
   <circle id="circle3671" fill="none" stroke="#000000" cx="0" cy="-310" r="70"/>
   <path id="path3673" fill="#ffffff" d="m0,-275c-13.8071,0 -25,11.192993 -25,25c0,13.807007 11.1929,25 25,25l0,20c-24.8528,0 -45,-20.147003 -45,-45c0,-24.852997 20.1472,-45 45,-45l0,20z"/>
   <path id="path3675" fill="none" stroke="#000000" d="m0,-275c-13.8071,0 -25,11.192993 -25,25c0,13.807007 11.1929,25 25,25"/>
   <path id="path3677" fill="none" stroke="#000000" d="m-22,250l12,-456.100006c-24.2453,-5.522995 -39.422901,-29.654999 -33.900002,-53.899994c5.5228,-24.244995 29.654701,-39.423004 53.900002,-33.899994"/>
   <path id="path3679" fill="#ffffff" stroke="#000000" d="m128,-159l9,36c-101,23 -173,23 -274,0l9,-36l256,0z"/>
   <line id="line3681" stroke="#000000" x1="91" y1="-150" x2="96" y2="-122"/>
   <line id="line3683" stroke="#000000" x1="-91" y1="-150" x2="-96" y2="-122"/>
  </g>
  <g id="key" stroke="#000000">
   <path id="path3652" fill="#ffd700" d="m-51,-308c-49,-117 151,-117 102,0c130,-4 84,199 -37,112c6,9 6,19 0,28c6,9 6,19 0,28l0,514l-29,0l0,-514c-5,-9 -5,-19 1,-28c-6,-9 -6,-19 0,-28c-121,87 -167,-116 -37,-112z"/>
   <rect id="rect3654" fill="#ffd700" x="-13" y="374" width="26" height="30"/>
   <path id="path3656" fill="#ffd700" d="m-15,344l-15,0l0,30l-65,0l0,-22l33,0l0,-22l-33,0l0,-22l33,0l0,-22l-33,0l0,-22l65,0l0,30l15,0l0,50z"/>
   <path id="path3658" fill="#0080ff" d="m30,-292c151,2 57,170 -22,60c27,-16 19,-56 -8,-56c-27,0 -35,40 -8,56c-79,110 -173,-58 -22,-60c-54,-108 114,-108 60,0z"/>
  </g>
  <g id="shadow">
   <path id="path3647" d="m100,100l15,-15l0,40l-15,15l0,-40z"/>
   <path id="path3649" d="m100,100l15,-15l-66.700001,0l-15,15l66.700001,0z"/>
  </g>
 </defs>
 <metadata id="metadata7">image/svg+xml</metadata>
 <g>
  <title>Layer 1</title>
  <g id="g5366">
   <path id="path5368" fill="#000000" stroke="#000000" stroke-width="6.5" d="m208.003998,366.468994l-3.690002,3.386993c-1.042999,1.233002 -1.569,1.113007 -3.018997,0.742004c-2.787994,-0.494995 -5.761002,0.272003 -8.009003,2.335022c-3.830002,3.513977 -4.110992,9.468994 -0.595993,13.298981c3.513,3.82901 9.494995,4.085999 13.324005,0.571991c2.103989,-1.929993 3.118988,-4.598999 3.028992,-7.246979c-0.253006,-1.576996 -0.492004,-2.170013 0.664001,-3.231018l3.985992,-3.65799l-5.688995,-6.199005z"/>
   <path id="path5370" fill="#000000" fill-rule="evenodd" stroke="#000000" stroke-width="6.5" d="m221.115997,272.074005l-14.052002,12.893982l13.653,14.878998l-9.093002,8.343018l-13.653,-14.877991l-3.434998,3.151978l-4.003998,3.674011l-3.434998,3.152985l13.653,14.878021l-9.093002,8.343994l-13.653,-14.878998l-14.052002,12.894989l17.445007,19.011017l6.47699,-2.897003l4.55101,4.958984l-3.443008,6.20401l6.827011,7.440002l18.184998,-16.687012l8.343994,9.09201l20.792999,-19.080994l-8.343002,-9.09201l18.185013,-16.687012l-6.827011,-7.439972l-6.475998,2.89798l-4.550995,-4.958984l3.442001,-6.205017l-17.445007,-19.010986z"/>
   <path id="path5372" fill="#000000" fill-rule="evenodd" stroke="#000000" stroke-width="6.5" d="m454.42099,146.085007c-3.812988,-4.156006 -9.704987,-5.488007 -12.802002,-2.647003c-2,1.835999 -2.454987,4.871994 -1.504974,7.901001l-2.764008,2.535995l-3.839996,-4.184998c-9.197021,6.08699 -21.731995,4.785004 -29.421997,-3.596008c-8.524017,-9.289001 -7.901001,-23.772995 1.386993,-32.295998c9.289001,-8.523994 23.746979,-7.877998 32.269989,1.411003c4.093018,4.459 6.020996,10.106003 5.951019,15.714005l12.741974,-0.320999c-0.743988,-5.526009 1.134003,-11.318008 5.549011,-15.369003c2.687988,-2.468002 5.937012,-3.938004 9.296997,-4.439003c0.89801,-0.133995 1.808014,-0.210999 2.713013,-0.206001c0.134979,0 0.260986,0.013 0.395996,0.017006c0.125,0.002998 0.247986,-0.015007 0.372986,-0.009003c0.524017,0.026001 1.061005,0.095001 1.580994,0.167c0.559021,0.078003 1.122009,0.189003 1.673004,0.32c0.098999,0.023003 0.197021,0.037003 0.295013,0.061996c0.450989,0.116005 0.881012,0.253006 1.322998,0.404007c1.075989,0.368996 2.139008,0.868996 3.138,1.449997c0.416992,0.242996 0.833008,0.493996 1.233002,0.773003c0.156006,0.108994 0.303009,0.227997 0.455994,0.341995c0.394989,0.296005 0.777008,0.610001 1.151001,0.943001c0.436005,0.388 0.859009,0.781998 1.261993,1.220001c0.009003,0.009003 0.016022,0.016998 0.024017,0.026001c0.401978,0.439995 0.759003,0.894997 1.108002,1.362999c0.298981,0.401001 0.579987,0.807999 0.839996,1.226997c0.037994,0.060005 0.079987,0.118004 0.117004,0.178001c0.011993,0.020004 0.035004,0.031998 0.046997,0.052002c0.063995,0.105995 0.097992,0.223 0.160004,0.329002c0.229004,0.400993 0.446991,0.806 0.641998,1.218994c0.492981,1.046005 0.875977,2.122002 1.151978,3.226006c0.025024,0.099998 0.063019,0.200996 0.085999,0.300995c0.105011,0.453003 0.195007,0.917999 0.264008,1.375999c0.147003,0.989006 0.216003,1.965004 0.195007,2.961006c-0.002991,0.132004 -0.011993,0.263992 -0.016998,0.395996c-0.024017,0.563995 -0.070007,1.147003 -0.14801,1.705994c-0.001984,0.017014 0.001007,0.033005 -0.001984,0.050003c-0.076996,0.542999 -0.190002,1.089005 -0.317993,1.624008c-0.787018,3.304001 -2.531006,6.414001 -5.220001,8.881989c-4.415009,4.05101 -10.347015,5.425003 -15.788025,4.210007l-1.412994,12.667999c5.593994,0.410995 11.054016,2.815994 15.145996,7.274994c8.524017,9.289001 7.927002,23.75 -1.360992,32.27301c-9.289001,8.522995 -23.77301,7.901001 -32.296997,-1.387009c-7.690002,-8.381989 -7.911987,-20.980988 -1.05899,-29.623001l-3.839996,-4.18399l2.763977,-2.537003c2.936005,1.207001 5.999023,1.013992 8,-0.822006c3.096008,-2.840988 2.274017,-8.825989 -1.539001,-12.980988l0,0zm40.106018,-36.873009c-0.511993,-0.555 -1.050018,-1.077995 -1.595001,-1.583c-0.485016,-0.447998 -0.972992,-0.894997 -1.481995,-1.304001c-0.065002,-0.051994 -0.126007,-0.104996 -0.192017,-0.156998c-0.074982,-0.059998 -0.165009,-0.100998 -0.240997,-0.158997c-0.513,-0.396004 -1.031006,-0.778999 -1.563995,-1.135002c-0.567993,-0.377998 -1.152008,-0.734001 -1.740997,-1.067001c-0.248016,-0.139999 -0.5,-0.271996 -0.752014,-0.403999c-0.078979,-0.042 -0.164001,-0.069 -0.242981,-0.110001c-0.378998,-0.195 -0.756012,-0.393997 -1.141998,-0.57c-0.244019,-0.112 -0.483002,-0.224998 -0.730011,-0.329002c-0.27301,-0.115997 -0.553009,-0.226997 -0.82901,-0.334c-0.097992,-0.036995 -0.194977,-0.074997 -0.292999,-0.111c-0.227997,-0.084999 -0.455994,-0.149994 -0.684998,-0.227997c-0.444,-0.153 -0.871002,-0.324997 -1.320984,-0.454002c-0.424011,-0.122002 -0.848999,-0.200996 -1.277008,-0.303001c-0.39801,-0.094994 -0.803009,-0.197998 -1.20401,-0.274994c-0.481995,-0.093002 -0.967987,-0.169006 -1.453979,-0.236c-0.354004,-0.050003 -0.706024,-0.085007 -1.062012,-0.120003c-0.091003,-0.009003 -0.179993,-0.028999 -0.270996,-0.037003c-0.33902,-0.029999 -0.674011,-0.049995 -1.014008,-0.068001c-0.48999,-0.027 -0.971985,-0.036995 -1.463013,-0.037994c-0.065979,0 -0.130981,-0.009003 -0.197998,-0.009003c-0.447998,0.002998 -0.892975,0.017998 -1.34198,0.042c-0.406006,0.021004 -0.813019,0.032997 -1.218018,0.071999c-0.48999,0.047005 -0.985992,0.137001 -1.472992,0.209c-0.441986,0.066002 -0.885986,0.129005 -1.325012,0.216003c-0.885986,0.176003 -1.76297,0.393997 -2.632996,0.655998c-0.440979,0.133003 -0.873993,0.285004 -1.30899,0.440002c-0.428986,0.153 -0.838989,0.318001 -1.261993,0.491997c-0.083008,0.034004 -0.169006,0.054001 -0.252014,0.089005c-2.868988,1.214996 -5.587006,2.936996 -8.013,5.163994c-2.298981,2.110001 -4.135986,4.517006 -5.565979,7.105003c-1.207001,-2.151001 -2.662018,-4.197998 -4.403015,-6.094002c-12.187012,-13.281197 -32.859009,-14.194 -46.139984,-2.006996c-13.279999,12.186996 -14.170013,32.884995 -1.983002,46.166c7.436981,8.104004 18.043976,11.584 28.191986,10.291992c-4.664001,4.150009 -11.554993,4.868011 -17.708008,6.733002l-1.458984,10.854996l-0.927002,0.804001c-0.319,-0.724991 -0.737,-1.425995 -1.302002,-2.041c-2.765991,-3.014999 -7.437012,-3.215988 -10.451996,-0.44899c-3.015015,2.765991 -3.240997,7.459991 -0.475006,10.474991c0.510986,0.557007 1.109009,1.001007 1.727997,1.365005l-191.347,174.82399l11.069,12.063019l190.589005,-175.651001c0.309998,0.647995 0.700989,1.281998 1.210999,1.838989c2.766998,3.014008 7.463013,3.19101 10.477997,0.425003c3.015015,-2.766006 3.214996,-7.436996 0.449005,-10.451996c-0.565002,-0.615005 -1.22699,-1.09201 -1.921997,-1.472l0.880981,-0.855011l10.940002,-0.522995c2.38501,-5.970001 3.692017,-12.774002 8.226013,-17.065002c-2.157013,10 0.399994,20.866013 7.837006,28.971008c12.186981,13.280991 32.884979,14.169998 46.165985,1.983002c13.281006,-12.187012 14.144012,-32.861008 1.957001,-46.141998c-1.73999,-1.897003 -3.653992,-3.522003 -5.694,-4.910004c2.701019,-1.203003 5.257019,-2.826004 7.556,-4.934998c2.427002,-2.227005 4.375,-4.787003 5.833008,-7.541c0.040985,-0.07901 0.067993,-0.164001 0.109009,-0.243011c0.070984,-0.136993 0.123993,-0.276001 0.191986,-0.413986c0.132996,-0.268005 0.282013,-0.530014 0.406006,-0.80101c0.048004,-0.104004 0.09201,-0.212997 0.138,-0.317001c0.050995,-0.11499 0.11499,-0.224991 0.164001,-0.339996c0.194,-0.457001 0.362,-0.927002 0.531006,-1.391998c0.053986,-0.147995 0.115997,-0.290009 0.167999,-0.438995c0.005005,-0.016006 -0.003998,-0.035004 0.001984,-0.050003c0.046997,-0.137009 0.097015,-0.277008 0.141998,-0.415009c0.154999,-0.478989 0.304016,-0.960999 0.434021,-1.445999c0.010986,-0.041 0.018982,-0.080994 0.029999,-0.121994c0.053986,-0.205002 0.100983,-0.408997 0.149994,-0.613998c0.11499,-0.479004 0.247009,-0.966003 0.335999,-1.449997c0.108002,-0.590012 0.179993,-1.205002 0.251007,-1.800003c0.011993,-0.108002 0.026978,-0.214005 0.037994,-0.320999c0.065002,-0.602005 0.100983,-1.177002 0.126007,-1.781006c0.019989,-0.449005 0.009979,-0.890991 0.007996,-1.339996c-0.002014,-0.445 -0.018005,-0.897003 -0.041016,-1.342003c-0.016998,-0.314987 -0.031982,-0.629997 -0.05899,-0.945c-0.015991,-0.191002 -0.028992,-0.382996 -0.049988,-0.572998c-0.037018,-0.346001 -0.080017,-0.678001 -0.130005,-1.023003c-0.009003,-0.067001 -0.029999,-0.132996 -0.041016,-0.199997c-0.130981,-0.869003 -0.294983,-1.721001 -0.509003,-2.578003c-0.102997,-0.413002 -0.220978,-0.845001 -0.342987,-1.254997c-0.062988,-0.208 -0.128998,-0.422005 -0.196991,-0.628998c-0.096008,-0.296005 -0.178009,-0.587006 -0.283997,-0.880005c-0.172028,-0.473999 -0.363007,-0.922997 -0.561005,-1.389c-0.117004,-0.276001 -0.26001,-0.562996 -0.386017,-0.835999c-0.264984,-0.568001 -0.539001,-1.143997 -0.845001,-1.697998c-0.292999,-0.534004 -0.593994,-1.060005 -0.924988,-1.578003c-0.113007,-0.178001 -0.231018,-0.361 -0.348999,-0.535995c-0.359009,-0.537003 -0.748016,-1.047005 -1.149017,-1.563004c-0.458984,-0.592003 -0.924988,-1.162003 -1.438995,-1.724998c-0.015991,-0.016998 -0.031982,-0.034004 -0.048004,-0.051003c-0.006989,-0.009003 -0.014984,-0.017998 -0.02298,-0.026001l0,0z"/>
  </g>
  <path id="path2430" fill="#ffffff" d="m47.820999,139.744003c-12.758801,14.25499 -11.519897,36.173996 2.735199,48.932999c14.255005,12.759003 36.1744,11.520004 48.933205,-2.735001c2.197594,-2.456009 3.946594,-5.117996 5.320595,-7.942001c-0.450996,-0.671005 -0.987999,-1.307007 -1.618996,-1.871002c-2.509003,-2.246002 -5.831902,-2.977997 -8.863098,-2.23999c-0.866302,1.619995 -1.917404,3.140991 -3.197807,4.570999c-8.628799,9.640991 -23.451294,10.487 -33.091995,1.857986c-9.640701,-8.628998 -10.486603,-23.450989 -1.8578,-33.091995c8.628895,-9.640991 23.477398,-10.462997 33.118099,-1.834c4.143997,3.709 6.650597,8.572998 7.4851,13.662003c3.958496,0.018997 7.914497,0.964996 11.5075,2.912994c-0.236,-9.205994 -4.106003,-18.307999 -11.510704,-24.934998c-14.254997,-12.758995 -36.200497,-11.542999 -48.959297,2.712006l0,0z"/>
 </g>
</svg>
